<?xml version="1.0" encoding="UTF-8" standalone="no"?>
<!-- Generator: Adobe Illustrator 23.0.3, SVG Export Plug-In . SVG Version: 6.00 Build 0)  -->

<svg
   version="1.1"
   id="Layer_1"
   x="0px"
   y="0px"
   viewBox="0 0 67.146469 32"
   xml:space="preserve"
   sodipodi:docname="logo.svg"
   width="67.146469"
   height="32"
   inkscape:version="1.1.2 (1:1.1+202202050950+0a00cf5339)"
   xmlns:inkscape="http://www.inkscape.org/namespaces/inkscape"
   xmlns:sodipodi="http://sodipodi.sourceforge.net/DTD/sodipodi-0.dtd"
   xmlns="http://www.w3.org/2000/svg"
   xmlns:svg="http://www.w3.org/2000/svg"><defs
   id="defs980" /><sodipodi:namedview
   id="namedview978"
   pagecolor="#505050"
   bordercolor="#ffffff"
   borderopacity="1"
   inkscape:pageshadow="0"
   inkscape:pageopacity="0"
   inkscape:pagecheckerboard="1"
   showgrid="false"
   inkscape:zoom="1"
   inkscape:cx="38.5"
   inkscape:cy="-23"
   inkscape:window-width="1366"
   inkscape:window-height="703"
   inkscape:window-x="0"
   inkscape:window-y="0"
   inkscape:window-maximized="1"
   inkscape:current-layer="Layer_1" />
<style
   type="text/css"
   id="style919">
	.st0{fill:#FFFFFF;}
</style>
<g
   id="g975"
   transform="matrix(0.07702749,0,0,0.07702749,-3.522832,-8.7919675)">
	<path
   class="st0"
   d="m 788.99,277.18 c 1.07,-19.04 -2.95,-37.06 -10.85,-54.26 -1.96,-4.27 -0.44,-4.88 3.46,-4.85 11.97,0.1 23.94,0.37 35.66,-3.12 16.81,-5.01 32.31,-12.41 44.21,-25.56 18.14,-20.05 28.7,-43.59 30.13,-70.82 0.2,-3.76 1.11,-4.8 4.89,-4.32 5.77,0.72 11.61,0.95 17.43,1.08 2.78,0.06 3.77,0.86 3.49,3.74 -1.85,19.62 -5.62,38.55 -15.11,56.28 -5.29,9.89 -11.66,18.87 -18.56,27.45 -9.41,11.69 -21.06,21.36 -34.64,27.61 -10.6,4.87 -21.6,9.53 -33.38,11.26 -3.22,0.47 -3.68,1.4 -3.35,4.75 2.59,26.4 4.51,52.87 -4.52,78.55 -4.05,11.53 -8.64,22.77 -15.33,33.31 -8.11,12.75 -17.88,23.98 -28.94,33.8 -10.07,8.95 -21.66,16.31 -34.13,21.89 -31.85,14.24 -64.8,19.72 -99.09,10.98 -14.87,-3.79 -29.39,-8.56 -42.92,-16.53 -15.9,-9.38 -28.44,-21.99 -40.54,-35.53 -4.94,-5.53 -7.65,-12.33 -12.32,-17.92 -1.58,-1.88 -2.59,-2.26 -4.87,-1.24 -35.91,15.97 -72.73,18.32 -110.42,7.16 -15.35,-4.55 -30.05,-10.69 -43.43,-19.44 -8.4,-5.49 -16.2,-11.86 -23.7,-18.71 -6.31,-5.76 -11.54,-12.35 -16.79,-18.83 -6.31,-7.79 -11.01,-16.88 -16.41,-25.41 -0.8,-1.26 -1.06,-2.23 0.7,-3.08 6.7,-3.25 13.34,-6.62 19.99,-9.97 1.24,-0.63 1.91,-0.74 2.52,0.93 3.07,8.36 8.76,15.29 13.87,22.29 5.08,6.95 11.35,13.21 17.96,19.07 8.66,7.67 18.07,14 28.31,19.03 14.96,7.36 30.79,12.18 47.4,14.18 23.63,2.84 46.17,-1.19 68.43,-9.39 8.03,-2.96 14.75,-7.3 21.51,-11.98 4.99,-3.46 5.12,-3.69 7.34,2.1 8.79,22.88 22.99,41.8 42.11,56.92 9.65,7.62 20.55,12.94 32.35,17.04 25.72,8.94 51.28,9.88 77.4,2.44 14.21,-4.05 27.51,-10.2 39.28,-18.74 10.67,-7.75 20.16,-17.15 28.07,-28.06 10,-13.79 16.6,-28.95 20.7,-45.32 2.4,-9.45 1.89,-19.17 2.09,-28.78 z"
   id="path921" />
	<path
   class="st0"
   d="m 267.68,223.81 c 8.99,-14.67 14.85,-30.15 21.82,-45.06 6.58,-14.06 13.76,-27.87 19.52,-42.33 2.57,-6.45 6.7,-12.24 8.78,-18.94 0.52,-1.69 1.44,-2.02 2.88,-2.01 8.33,0 16.66,0.03 24.99,-0.02 2.12,-0.01 2.66,0.55 1.7,2.61 -6.61,14.26 -13.07,28.58 -19.72,42.81 -6.8,14.57 -13.85,29.02 -20.61,43.6 -8.35,18 -17,35.88 -25.02,54 -4.68,10.58 -10.92,20.44 -14.53,32.22 -4.11,-9.46 -9.37,-17.67 -12.73,-26.91 -2.42,-6.66 -6.67,-12.65 -9.19,-19.29 -4.52,-11.93 -11.93,-22.5 -15.82,-34.71 -0.99,-3.11 -2.96,-5.91 -4.49,-8.84 -6.13,-11.73 -10.98,-24.05 -16.92,-35.89 -3.76,-7.49 -6.8,-15.39 -11.09,-23.47 -23.44,49.78 -46.65,99.07 -70.06,148.78 -2.31,-4.34 -4.78,-8.26 -6.55,-12.47 -7.25,-17.23 -15.72,-33.88 -23.7,-50.77 C 86.76,205.57 77.04,183.8 66.97,162.2 60.46,148.24 53.67,134.41 46.99,120.53 c -2.14,-4.44 -1.81,-5.03 3.08,-5.05 7.66,-0.02 15.33,0.08 22.99,-0.05 2.72,-0.05 4.31,0.62 5.93,3.18 3.08,4.84 4.05,10.45 6.81,15.42 7.07,12.72 12.8,26.15 18.83,39.38 6.04,13.24 13.18,25.97 18.45,39.57 1.36,3.52 3.48,6.75 5.53,10.66 3.55,-6.84 6.18,-13.6 9.47,-20.03 10.25,-20.03 19.26,-40.67 29.26,-60.83 4.02,-8.11 7.94,-16.34 11.87,-24.54 1.03,-2.15 2.29,-2.82 4.58,-2.8 10,0.11 20,0.13 29.99,-0.01 2.63,-0.04 3.45,1.06 4.54,3.36 7.88,16.61 15.73,33.26 23.26,50.01 4.8,10.68 10.67,20.87 14.63,31.99 2.86,7.87 7.47,15.1 11.47,23.02 z"
   id="path923" />
	<path
   class="st0"
   d="m 466.64,114.98 c -1.26,6.59 -3.69,12.56 -3.66,18.91 0.07,14.4 4.01,27.02 14.2,38.11 10.09,10.97 21.59,18.62 36.16,20.74 13.8,2 27,-1.46 39.91,-6.46 18.25,-7.06 35,-17.37 53.45,-24.03 21.88,-7.9 44.15,-9.16 66.8,-5.1 4.8,0.86 9.44,3.18 13.87,5.39 13.23,6.59 24.35,15.85 33.75,27.28 17.13,20.82 23.04,44.4 19.21,71.06 -1.8,12.48 -6.68,23.31 -12.15,34.41 -3.92,7.95 -9.44,14.56 -14.86,20.98 -4.97,5.87 -11.14,11.14 -17.47,16.05 -9.5,7.37 -19.6,13.49 -30.18,19.02 -10.07,5.26 -21.05,7.84 -31.76,11.25 -2.25,0.71 -2.54,-0.31 -2.53,-2.16 0.04,-7.16 0.19,-14.33 -0.07,-21.49 -0.11,-2.95 1.84,-3.07 3.61,-3.74 8.34,-3.16 16.95,-5.52 24.9,-9.78 15.84,-8.48 30.3,-19.08 40.71,-33.51 15.12,-20.95 20.05,-44.42 9.22,-69.11 -3.63,-8.26 -9.46,-15.28 -16.02,-21.84 -18.91,-18.91 -41.08,-23.27 -65.9,-15.77 -14.73,4.45 -28.98,10.16 -42.75,17.39 -19.2,10.07 -39.5,17.45 -61.72,17.21 -16.3,-0.17 -31.67,-2.82 -46.09,-11.84 -7.48,-4.67 -14.2,-10.11 -19.86,-16.19 -15.53,-16.71 -21.85,-37.19 -20.02,-60 0.38,-4.79 1.18,-9.56 2.57,-14.2 0.48,-1.61 0.98,-2.63 2.94,-2.6 7.81,0.07 15.62,0.02 23.74,0.02 z"
   id="path925" />
	<path
   class="st0"
   d="m 636.44,204.85 c 0,13.15 -0.05,25.62 0.05,38.09 0.02,2.12 -0.9,3.36 -2.37,4.59 -4.95,4.11 -10.08,7.93 -15.34,11.67 -7.25,5.16 -15.16,8.78 -22.97,12.79 -16.79,8.61 -34.99,11.31 -53.38,12.68 -18.88,1.41 -37.66,-1.26 -55.91,-5.61 -16.58,-3.95 -31.88,-11.38 -46.18,-21.23 -7.71,-5.32 -14.77,-11.35 -21.27,-17.69 -6.01,-5.86 -11.5,-12.6 -16.65,-19.56 -8.69,-11.73 -16.15,-24.04 -21.41,-37.43 -8.01,-20.4 -12.5,-41.66 -11.21,-63.84 0.17,-2.92 0.75,-4.02 3.93,-3.91 7.49,0.26 14.99,0.15 22.49,0.04 2.52,-0.04 4.01,0.13 3.65,3.42 -1.74,15.97 1.79,31.43 5.19,46.84 0.81,3.67 2.63,7.14 4.21,10.6 6.58,14.37 15.12,27.49 25.67,39.26 9.57,10.67 20.51,20.03 33.01,26.73 20.34,10.91 42.25,16.03 65.68,15.01 16.91,-0.74 32.57,-4.71 48,-11.52 11.04,-4.88 21.18,-11.03 30.33,-18.47 6.04,-4.91 12.77,-9.49 17.14,-16.38 1.6,-2.52 3.9,-4.52 7.34,-6.08 z"
   id="path927" />
	
	<path
   class="st0"
   d="m 484.37,492.44 c 0,-7.3 -0.02,-14.26 0.02,-21.23 0.01,-1.69 -0.69,-3.8 2.36,-3.87 3.14,-0.07 2.37,2.09 2.38,3.76 0.03,14.79 0.04,29.58 -0.02,44.36 -0.01,1.16 0.88,2.96 -0.96,3.39 -1.43,0.34 -3.16,0.76 -3.41,-2.04 -0.17,-1.88 -1.31,0.05 -1.93,0.25 -2.64,0.86 -4.78,2.91 -7.78,3.04 -5.61,0.26 -10.24,-1.56 -12.96,-6.56 -3.42,-6.28 -3.49,-12.88 0.51,-18.89 3.05,-4.59 7.79,-6.35 13.38,-5.75 2.93,0.33 4.76,2.96 8.41,3.54 z m -9.87,0.23 c -6.72,-0.01 -9.81,3.54 -10,11.49 -0.18,7.55 4.12,12.89 10.24,12.74 5.06,-0.12 10.13,-6.28 9.96,-12.47 -0.2,-7.29 -5.38,-12.7 -10.2,-11.76 z"
   id="path931" />
	
	<path
   class="st0"
   d="m 666.69,492.36 c 0,-7.43 0,-14.56 0,-21.69 0,-1.64 -0.39,-3.38 2.32,-3.36 2.52,0.02 2.5,1.49 2.5,3.28 -0.02,15.14 0,30.28 -0.04,45.42 0,1.04 0.57,2.57 -1.09,2.87 -1.04,0.19 -2.7,0.61 -3,-0.86 -0.63,-3.07 -1.78,-1.12 -2.79,-0.45 -7.13,4.75 -14.5,2.58 -18.96,-2.22 -4.99,-5.37 -4.76,-16.8 -0.07,-21.79 5.25,-5.59 12.58,-6.2 19.36,-1.63 0.25,0.16 0.62,0.16 1.77,0.43 z m -9.63,0.33 c -5.91,-0.04 -10.1,4.74 -10.19,11.6 -0.09,6.7 4.73,12.69 10.14,12.61 5.71,-0.09 9.73,-5.01 9.87,-12.1 0.16,-7.8 -3.31,-12.07 -9.82,-12.11 z"
   id="path935" />
	<path
   class="st0"
   d="m 319.08,492.78 c 0,-7.57 -0.02,-14.57 0.02,-21.56 0.01,-1.69 -0.71,-3.76 2.35,-3.89 3.06,-0.13 2.53,1.85 2.53,3.61 0.01,14.99 0.02,29.99 -0.02,44.98 0,1.02 0.64,2.57 -0.93,2.89 -1.09,0.22 -2.73,0.88 -3.18,-1.18 -0.49,-2.26 -1.41,-0.86 -2.33,-0.28 -8.21,5.21 -14.08,2.59 -18.77,-1.34 -4.98,-4.18 -5.47,-14.82 -1.72,-20.93 4.34,-7.04 13.48,-8.21 22.05,-2.3 z m 0.32,11.9 c 0.12,-7.69 -3.17,-11.54 -9.41,-12.09 -5.86,-0.52 -10.28,4.67 -10.73,11.83 -0.38,6.03 4.86,12.34 9.93,12.48 6.05,0.17 10.09,-4.67 10.21,-12.22 z"
   id="path937" />
	<path
   class="st0"
   d="m 536.54,511.65 c 3.36,-5.01 3.49,-10.49 5.39,-15.34 0.93,-2.38 0.7,-6.28 4.37,-6.25 3.3,0.03 3.32,3.68 4.17,5.95 1.84,4.95 3.26,10.05 4.96,15.44 5,-6.74 4.72,-16.2 11.23,-21.7 -1.26,9.13 -4.26,17.45 -7.6,25.67 -0.66,1.63 -0.84,3.66 -3.31,3.73 -2.82,0.07 -2.28,-2.27 -2.86,-3.84 -2.1,-5.74 -4.21,-11.47 -6.59,-17.94 -2.15,5.73 -4.85,10.47 -5.88,15.91 -0.43,2.25 -0.09,5.4 -3.42,5.8 -3.57,0.43 -3.57,-2.86 -4.34,-5.03 -2.75,-7.79 -5.35,-15.64 -8.09,-23.71 2.31,-0.78 3.7,-0.79 4.67,2.13 2.12,6.33 4.73,12.5 7.3,19.18 z"
   id="path939" />
	<path
   class="st0"
   d="m 207.95,512.32 c 4.28,-7.61 5.13,-15.64 9.49,-22.19 0.27,-0.4 1.52,-0.14 2.57,-0.21 -1.49,9.46 -5.63,17.75 -8.72,26.37 -0.48,1.34 -0.94,2.88 -2.95,2.87 -2.19,-0.01 -2.03,-1.72 -2.53,-3.08 -2.22,-6.03 -4.51,-12.04 -7.09,-18.88 -2.2,6.36 -4.95,11.44 -5.79,17.25 -0.28,1.94 -0.62,4.46 -3.56,4.69 -3.14,0.25 -3.13,-2.49 -3.92,-4.28 -3.51,-7.88 -4.58,-16.6 -8.57,-24.4 3.24,-1.44 4.39,-0.22 5.35,2.79 1.95,6.14 4.43,12.11 7.15,19.36 1.44,-4.74 3.35,-8.01 4,-11.83 0.42,-2.44 1.04,-4.9 2.02,-7.16 0.63,-1.47 0.67,-3.72 3.31,-3.76 2.64,-0.03 2.73,2.15 3.35,3.64 2.39,5.82 4.44,11.77 5.89,18.82 z"
   id="path941" />
	<path
   class="st0"
   d="m 765.11,504.73 c 0,3.99 0.02,7.98 -0.01,11.97 -0.01,0.91 0.32,2.14 -1.19,2.22 -0.62,0.03 -1.8,-0.21 -1.81,-0.37 -0.24,-4.5 -2.36,-1.19 -3.59,-0.82 -1.58,0.48 -3.03,1.37 -4.6,1.85 -7.05,2.16 -14.2,-1.69 -16.3,-9.3 -3.1,-11.23 1.54,-21.83 13.63,-21.38 3.14,0.12 5.66,1.77 8.25,3.23 1.27,0.71 2.42,1.63 2.39,-0.92 -0.02,-1.56 1.16,-1.36 2.1,-1.26 1.49,0.16 1.1,1.4 1.11,2.3 0.04,4.16 0.02,8.32 0.02,12.48 z m -14.07,-12.05 c -6.34,0 -10.6,4.75 -10.58,11.8 0.02,6.62 4.9,12.38 10.48,12.4 5.54,0.02 10.68,-5.87 10.74,-12.29 0.06,-6.79 -4.51,-11.91 -10.64,-11.91 z"
   id="path943" />
	<path
   class="st0"
   d="m 223.77,503.97 c 0.17,-9.01 6.67,-15.38 15.54,-15.23 8.52,0.15 15.29,7.17 15.22,15.79 -0.08,9.23 -6.98,15.86 -16.26,15.61 -8.74,-0.23 -14.68,-6.86 -14.5,-16.17 z m 4.76,0.38 c -0.06,7.5 4.21,12.59 10.54,12.56 5.35,-0.02 10.84,-6.22 10.64,-12.42 -0.2,-6.16 -4.61,-12.24 -10.78,-11.96 -6.18,0.28 -9.39,2.32 -10.4,11.82 z"
   id="path945" />
	<path
   class="st0"
   d="m 586.28,520.14 c -8.76,-0.03 -15.19,-6.62 -15.23,-15.62 -0.04,-9.04 6.74,-15.9 15.62,-15.79 8.64,0.1 15.27,6.91 15.28,15.7 0.02,9.11 -6.6,15.75 -15.67,15.71 z m 0.15,-27.47 c -6.45,-0.68 -9.79,3.31 -10.39,11.64 -0.52,7.23 4.31,12.6 10.45,12.6 5.49,0 10.52,-5.9 10.57,-12.38 0.04,-6.8 -4.47,-11.83 -10.63,-11.86 z"
   id="path947" />
	<path
   class="st0"
   d="m 452.15,504.52 c 0,4 0.03,7.99 -0.02,11.99 -0.01,0.89 0.47,2.22 -1.01,2.37 -0.93,0.1 -2.71,-0.12 -2.76,-0.41 -0.79,-5.19 -3.34,-1.14 -4.33,-0.56 -8.58,4.99 -17.48,1.94 -17.49,-9.45 0,-5.33 -0.09,-10.65 -0.16,-15.98 -0.02,-1.41 -0.01,-2.62 2,-2.62 2.19,0.01 1.75,1.5 1.77,2.74 0.05,4.99 -0.08,9.99 0.16,14.98 0.22,4.44 1.66,8.48 6.86,8.94 4.86,0.43 7.6,-3.05 9.42,-6.87 2,-4.18 0.69,-8.89 1.27,-13.3 0.28,-2.14 -2.35,-6.18 1.93,-6.26 4.84,-0.09 1.78,4.21 2.24,6.45 0.53,2.57 0.12,5.32 0.12,7.98 z"
   id="path949" />
	<path
   class="st0"
   d="m 403.46,520.16 c -9.89,-0.59 -14.37,-5.59 -14.53,-15.82 -0.15,-9.92 5.56,-15.34 14.95,-15.54 8.49,-0.18 14.77,6.69 14.81,15.69 0.04,9.51 -6.06,15.79 -15.23,15.67 z m -10.62,-15.73 c -0.03,6.91 4.83,12.48 10.88,12.46 5.78,-0.02 11.16,-6.07 11.1,-12.48 -0.06,-6.68 -4.65,-11.62 -10.88,-11.7 -6.87,-0.11 -11.07,4.33 -11.1,11.72 z"
   id="path951" />
	<path
   class="st0"
   d="m 282.38,492.94 c 0,-7.32 0.01,-14.65 -0.01,-21.97 0,-1.87 -0.28,-3.71 2.63,-3.65 2.78,0.06 2.17,1.94 2.17,3.49 0.02,14.98 0.02,29.96 0.01,44.94 0,1.58 0.5,3.28 -2.27,3.3 -3.04,0.02 -2.53,-1.88 -2.53,-3.64 -0.01,-7.49 0,-14.98 0,-22.47 z"
   id="path953" />
	<path
   class="st0"
   d="m 716.32,495.24 c -6.32,-3.74 -12.57,-3.41 -16.07,0.63 -4.2,4.83 -4.26,12.02 -0.15,16.94 4.11,4.91 9,5.27 15.91,1.1 1.28,2.34 0.08,3.63 -1.84,4.73 -5.78,3.32 -16.1,0.67 -19.42,-5.02 -4.67,-8.03 -2.67,-17.78 4.11,-22 4.1,-2.55 8.25,-3.49 12.8,-2.2 2.49,0.71 5.17,1.68 4.66,5.82 z"
   id="path955" />
	<path
   class="st0"
   d="m 809.93,520.1 c -4.12,0.11 -6.94,-0.66 -9.6,-2.19 -1.54,-0.89 -0.85,-2.02 -0.51,-3.01 0.67,-1.9 1.49,-0.22 2.11,0.1 2.41,1.23 4.94,1.82 7.63,1.89 3.07,0.08 4.6,-1.75 5.14,-4.39 0.52,-2.54 -0.61,-4.58 -3.04,-5.61 -1.35,-0.57 -2.85,-0.81 -4.3,-1.11 -5.23,-1.08 -7.78,-4.36 -7.31,-9.45 0.44,-4.79 3.39,-7.27 8.87,-7.44 0.99,-0.03 2.1,-0.26 2.97,0.09 2.08,0.84 5.96,0.72 5.49,3.45 -0.64,3.7 -3.39,-0.23 -5.25,0.26 -1.23,0.32 -2.63,-0.04 -3.95,-0.01 -2.15,0.04 -3.93,0.61 -4.32,3.14 -0.36,2.32 0.73,3.82 2.64,4.86 2.61,1.42 5.54,1.99 8.21,3.43 3.8,2.04 5.25,4.62 4.6,8.81 -0.73,4.66 -4.34,5.82 -7.97,7.04 -0.76,0.25 -1.64,0.16 -1.41,0.14 z"
   id="path957" />
	<path
   class="st0"
   d="m 782.68,520.18 c -3.14,0.28 -5.81,-1.08 -8.54,-2.33 -1.69,-0.78 -0.9,-1.89 -0.52,-2.91 0.6,-1.6 1.48,-0.66 2.27,-0.14 2.45,1.6 5.15,2.29 8.05,2.03 2.52,-0.23 4.51,-1.15 4.79,-4.09 0.25,-2.72 -0.18,-5.04 -3.28,-5.86 -1.6,-0.42 -3.2,-0.81 -4.81,-1.18 -4.06,-0.94 -6.95,-4.84 -6.72,-9.1 0.22,-4.15 3.34,-7.3 7.72,-7.68 3.02,-0.26 5.96,-0.02 8.66,1.68 1.01,0.64 1.45,1.16 0.93,2.34 -0.56,1.27 -1.29,1.22 -2.33,0.62 -1.97,-1.14 -4.16,-1.02 -6.31,-0.94 -2.19,0.09 -4.48,0.23 -4.87,3.16 -0.37,2.77 1.13,4.27 3.49,5.34 2.41,1.09 5,1.57 7.4,2.82 4.36,2.27 5.41,5.71 4.24,9.96 -1.09,3.98 -4.36,5.55 -8.19,6.12 -0.65,0.1 -1.32,0.11 -1.98,0.16 z"
   id="path959" />
	<path
   class="st0"
   d="m 368.63,513.95 c 1.13,2.63 -0.22,4 -2.44,5.02 -5.22,2.41 -14.51,0.46 -17.87,-3.79 -4.54,-5.73 -4.69,-15.61 -0.32,-20.99 3.74,-4.6 12.37,-6.68 17.78,-4.28 2.53,1.12 2.93,1.89 2.8,5.33 -5.39,-3.57 -12.03,-3.55 -15.3,0.04 -4.67,5.13 -4.91,12.52 -0.58,17.74 3.93,4.73 8.84,5.02 15.93,0.93 z"
   id="path961" />
	<path
   class="st0"
   d="m 629.89,493.05 c 0,-7.47 0,-14.94 0,-22.41 0,-1.63 -0.4,-3.36 2.32,-3.31 2.4,0.04 2.61,1.27 2.6,3.17 -0.04,15.11 -0.03,30.22 -0.01,45.33 0,1.75 0.12,3.16 -2.45,3.22 -2.58,0.06 -2.49,-1.3 -2.48,-3.08 0.05,-7.64 0.02,-15.28 0.02,-22.92 z"
   id="path963" />
	<path
   class="st0"
   d="m 728.13,493.08 c 0,7.66 0.03,15.32 -0.03,22.98 -0.01,1.13 0.73,2.78 -1.55,2.93 -2.35,0.16 -2.24,-1.31 -2.24,-2.88 0.01,-15.32 0.01,-30.64 0,-45.96 0,-1.39 -0.03,-2.74 1.92,-2.79 2.04,-0.05 1.89,1.37 1.89,2.73 0.01,7.67 0.01,15.33 0.01,22.99 z"
   id="path965" />
	<path
   class="st0"
   d="m 261.38,504.47 c 0,-3.99 -0.01,-7.98 0.01,-11.98 0.01,-1.1 -0.29,-2.56 1.48,-2.54 1.15,0.01 2.85,-0.74 2.99,1.48 0.17,2.75 1.43,1.52 2.41,0.58 1.62,-1.54 3.56,-2.46 5.68,-2.94 1.17,-0.26 2.8,-0.77 2.9,1.45 0.07,1.42 -0.08,2.25 -1.91,2.73 -7.11,1.88 -8.73,4.19 -8.76,11.49 -0.01,3.33 0.16,6.66 -0.07,9.98 -0.11,1.57 1.52,4.24 -2.17,4.3 -3.94,0.06 -2.41,-2.8 -2.51,-4.57 -0.19,-3.32 -0.05,-6.65 -0.05,-9.98 z"
   id="path967" />
	<path
   class="st0"
   d="m 376.92,493.08 c 0,-7.47 -0.03,-14.95 0.03,-22.42 0.01,-1.28 -0.81,-3.22 1.76,-3.26 2.31,-0.04 2.12,1.55 2.12,3.07 0,15.11 0.01,30.22 -0.02,45.33 0,1.36 0.57,3.11 -1.9,3.18 -3.04,0.09 -1.92,-2.15 -1.94,-3.49 -0.1,-7.47 -0.05,-14.94 -0.05,-22.41 z"
   id="path969" />
	<path
   class="st0"
   d="m 611.04,489.94 c 0.26,0 0.82,-0.12 0.89,0.02 3,5.75 5.38,-0.42 8.07,-0.45 1.44,-0.02 3.25,-1.94 4.06,0.67 0.76,2.46 -0.76,2.87 -2.94,3.16 -5.19,0.68 -7.15,4.34 -7.29,9.15 -0.13,4.33 -0.04,8.66 -0.02,12.99 0.01,1.84 0.38,3.6 -2.61,3.58 -2.77,-0.02 -2.29,-1.67 -2.3,-3.27 -0.01,-7.66 -0.01,-15.33 0,-22.99 0,-1.43 -0.44,-3.24 2.14,-2.86 z"
   id="path971" />
	<path
   class="st0"
   d="m 504.16,518.7 c -0.42,3.38 0.2,7.07 -2.8,9.67 -0.82,0.71 -1.96,1.74 -3.01,0.88 -1.32,-1.09 0.2,-1.86 0.68,-2.83 1.29,-2.64 4.88,-5.32 0.05,-8.23 -0.6,-0.36 -0.38,-2.98 0.21,-4.2 0.63,-1.3 2.43,-0.74 3.64,-0.53 1.92,0.33 1.06,2.08 1.23,3.26 0.08,0.64 0,1.31 0,1.98 z"
   id="path973" />
</g>
</svg>
